<?xml version="1.0" encoding="utf-8"?>
<!-- Generator: Adobe Illustrator 18.1.1, SVG Export Plug-In . SVG Version: 6.00 Build 0)  -->
<svg version="1.1" id="Layer_1" xmlns="http://www.w3.org/2000/svg" xmlns:xlink="http://www.w3.org/1999/xlink" x="0px" y="0px"
	 viewBox="0 0 837.2 244.9" style="enable-background:new 0 0 837.2 244.9;" xml:space="preserve">
<circle style="&st0;" cx="222.7" cy="182.9" r="8.6"/>
<path style="&st1;" d="M28.9,110c-3.5-2.3-8.2-1.9-11.2,1.2c-3,3-3.4,7.7-1.2,11.2c-10.9,16.5-9.1,39,5.5,53.6
	c14.5,14.5,37.1,16.4,53.6,5.4c3.5,2.1,8,1.7,11-1.3c3-3,3.4-7.6,1.3-11.1c10.7-16.5,8.8-38.8-5.6-53.3
	C67.7,101.2,45.4,99.3,28.9,110z M83.7,165.4c-3.3-1.4-7.2-0.8-9.9,1.9c-2.7,2.7-3.3,6.7-1.9,9.9c-14.4,9.1-33.7,7.4-46.2-5.1
	c-12.5-12.5-14.2-31.9-5.1-46.3c3.3,1.3,7.1,0.7,9.8-1.9c2.6-2.6,3.3-6.5,2-9.7c14.4-8.9,33.6-7.2,46,5.3
	C90.8,131.9,92.6,151,83.7,165.4z"/>
<path style="&st1;" d="M231.5,108.7c0-4.6-3.7-8.4-8.3-8.4s-8.4,3.8-8.4,8.4c0,3.8,3,7,6,8v57.9c-3,1-5.9,4.2-5.9,8
	c0,4.6,3.8,8.4,8.4,8.4s8.3-3.8,8.3-8.4c0-3.7-2.8-6.8-5.8-7.9v-58.1C228.6,115.6,231.5,112.5,231.5,108.7z"/>
<path style="&st1;" d="M444.5,108.7c0-4.6-3.7-8.4-8.3-8.4s-8.4,3.8-8.4,8.4c0,3.8,3,7,6,8v57.9c-1,0.3-2,0.8-2.9,1.5l-61.7-62.8
	c0.9-1.3,1.4-2.9,1.4-4.7c0-4.6-3.7-8.4-8.4-8.4s-8.4,3.8-8.4,8.4c0,3.8,2.9,7,5.9,8v57.9c-3,1-5.9,4.2-5.9,8c0,4.6,3.8,8.4,8.4,8.4
	s8.3-3.8,8.3-8.4c0-3.7-2.8-6.8-5.8-7.9v-58.1c0,0,0.3-0.1,0.4-0.1l62.9,64c-0.2,0.7-0.3,1.4-0.3,2.2c0,4.6,3.8,8.4,8.4,8.4
	s8.3-3.8,8.3-8.4c0-3.7-2.8-6.8-5.8-7.9v-58.1C441.6,115.6,444.5,112.5,444.5,108.7z"/>
<path style="&st1;" d="M561.5,174.4c-0.7,0-1.3,0.1-1.9,0.2l-30.2-59.9c1.5-1.5,2.5-3.6,2.5-5.9c0-4.6-3.8-8.4-8.4-8.4
	s-8.4,3.8-8.4,8.4c0,2.4,1,4.5,2.6,6l-29.6,59.6c-0.2,0-0.4,0-0.6,0c-4.6,0-8.4,3.8-8.4,8.4s3.8,8.4,8.4,8.4s8.4-3.8,8.4-8.4
	c0-2.6-1.2-5-3.1-6.5l14.1-28.4h33.7l14.8,29.3c-1.3,1.5-2.2,3.4-2.2,5.6c0,4.6,3.8,8.4,8.4,8.4s8.4-3.8,8.4-8.4
	S566.1,174.4,561.5,174.4z M509.3,142.9l12.8-25.9c0.4,0.1,0.9,0.1,1.3,0.1c0.5,0,1-0.1,1.5-0.1l13.1,25.9H509.3z"/>
<path style="&st1;" d="M624.5,108.7c0-4.6-3.7-8.4-8.3-8.4s-8.4,3.8-8.4,8.4c0,3.8,3,7,6,8v57.9c-3,1-5.9,4.2-5.9,8
	c0,4.6,3.8,8.4,8.4,8.4s8.3-3.8,8.3-8.4c0-3.7-2.8-6.8-5.8-7.9v-58.1C621.6,115.6,624.5,112.5,624.5,108.7z"/>
<path style="&st1;" d="M818.6,174.8v-58.1c3-1.1,5.8-4.2,5.8-7.9c0-4.6-3.7-8.4-8.3-8.4s-8.4,3.8-8.4,8.4c0,3.8,3,7,6,8v57.9
	c-1,0.2-1.2,0.5-1.7,0.8l-62.2-63.3c0.5-1.1,0.8-2.2,0.8-3.5c0-4.6-3.7-8.4-8.4-8.4s-8.4,3.8-8.4,8.4c0,3.8,2.9,7,5.9,8v57.9
	c-3,1-5.9,4.2-5.9,8c0,4.6,3.8,8.4,8.4,8.4s8.3-3.8,8.3-8.4c0-3.7-2.8-6.8-5.8-7.9v-58.1c1-0.2,1.2-0.4,1.7-0.8l62.2,63.2
	c-0.5,1.1-0.8,2.3-0.8,3.6c0,4.6,3.8,8.4,8.4,8.4s8.3-3.8,8.3-8.4C824.4,179,821.6,175.9,818.6,174.8z"/>
<path style="&st1;" d="M689.6,65.5c-0.9-4.1-4.5-7.1-8.8-7.1c-4.3,0-7.9,3-8.8,7c-19.4,4-34,21.2-34,41.7
	c0,20.6,14.6,37.8,34.1,41.8c1,3.9,4.5,6.8,8.7,6.8c4.2,0,7.8-3,8.7-6.9c19.2-4.1,33.7-21.2,33.7-41.7
	C723.3,86.7,708.8,69.6,689.6,65.5z M689.2,143.4c-1.3-3.3-4.6-5.6-8.3-5.6c-3.8,0-7,2.4-8.4,5.7c-16.6-3.7-29.1-18.6-29.1-36.3
	c0-17.7,12.5-32.6,29.1-36.3c1.4,3.3,4.6,5.5,8.3,5.5c3.7,0,6.9-2.3,8.3-5.5c16.5,3.8,28.8,18.6,28.8,36.3
	C717.9,124.8,705.6,139.6,689.2,143.4z"/>
<path style="&st1;" d="M263.2,68.9H321c0.9,3.6,4.2,6.2,8.1,6.2c4.6,0,8.4-3.8,8.4-8.4s-3.8-8.4-8.4-8.4c-3.6,0-6.7,2.3-7.9,5.5H263
	c-1.2-3.2-4.2-5.5-7.9-5.5c-4.6,0-8.4,3.8-8.4,8.4c0,3.8,2.9,7,5.9,8v57.9c-3,1-5.9,4.2-5.9,8c0,4.6,3.8,8.4,8.4,8.4
	c3.5,0,6.6-2.2,7.8-5.2h58.5c1.2,3.1,4.2,5.2,7.8,5.2c4.6,0,8.4-3.8,8.4-8.4s-3.8-8.4-8.4-8.4c-4,0-7.3,2.8-8.2,6.5h-57.7
	c-0.7-2.9-2.7-5.2-5.7-6.1v-26.9H321c0.9,3.6,4.2,6.2,8.1,6.2c4.6,0,8.4-3.8,8.4-8.4s-3.8-8.4-8.4-8.4c-3.6,0-6.7,2.3-7.9,5.5h-63.6
	V74.7C260.6,73.8,262.5,71.6,263.2,68.9z"/>
<path style="&st1;" d="M501,68.9c0.9,3.6,4.2,6.2,8.1,6.2c4.6,0,8.4-3.8,8.4-8.4s-3.8-8.4-8.4-8.4c-3.6,0-6.7,2.3-7.9,5.5H443
	c-1.2-3.2-4.2-5.5-7.9-5.5c-4.6,0-8.4,3.8-8.4,8.4s3.8,8.4,8.4,8.4c3.9,0,7.2-2.7,8.1-6.2h27.4v63.8c-3,1-5.9,4.2-5.9,8
	c0,4.6,3.8,8.4,8.4,8.4s8.3-3.8,8.3-8.4c0-3.7-2.8-6.8-5.8-7.9V68.9H501z"/>
<path style="&st1;" d="M615.1,58.4c-3.6,0-6.7,2.3-7.9,5.5H549c-1.2-3.2-4.2-5.5-7.9-5.5c-4.6,0-8.4,3.8-8.4,8.4s3.8,8.4,8.4,8.4
	c3.9,0,7.2-2.7,8.1-6.2h27.4v63.8c-3,1-5.9,4.2-5.9,8c0,4.6,3.8,8.4,8.4,8.4s8.3-3.8,8.3-8.4c0-3.7-2.8-6.8-5.8-7.9V68.9H607
	c0.9,3.6,4.2,6.2,8.1,6.2c4.6,0,8.4-3.8,8.4-8.4S619.8,58.4,615.1,58.4z"/>
<path style="&st1;" d="M196.8,105.9c0.8,0,1.5-0.4,1.9-1c0.6-0.5,0.9-1.2,0.9-2V74.3c4-0.9,6.6-4.3,6.6-8.3c0-4.7-3.8-8.6-8.6-8.6
	c-4,0-7.4,2.8-8.3,6.5h-64.6c-1.2-3.2-4.4-5.5-8-5.5c-4.7,0-8.7,3.8-8.7,8.6c0,3.7,2.6,6.9,5.6,8.1v57.9c-3,1.2-5.6,4.4-5.6,8.1
	c0,4.7,3.9,8.6,8.6,8.6c4.7,0,8.6-3.8,8.6-8.6c0-4-2.6-7.4-6.6-8.3v-25.4l66.4,33.3c0,0.2,0,0.3,0,0.5c0,4.7,3.9,8.6,8.6,8.6
	c4.7,0,8.6-3.8,8.6-8.6c0-4.7-3.8-8.6-8.6-8.6c-2.8,0-5.3,1.3-6.8,3.4l-59.5-29.9H196.8z M118.6,75.3c3-0.8,5.7-3.3,6.4-6.4h64.5
	c0.9,2.4,3,4.3,5,5.1v26.9h-76V75.3z"/>
<circle style="&st0;" cx="222.7" cy="16.9" r="8.6"/>
<circle style="&st0;" cx="362.7" cy="16.9" r="8.6"/>
<circle style="&st0;" cx="471.7" cy="16.9" r="8.6"/>
<circle style="&st0;" cx="577.7" cy="16.9" r="8.6"/>
<circle style="&st0;" cx="727.7" cy="16.9" r="8.6"/>
<circle style="&st0;" cx="82.7" cy="16.9" r="8.6"/>
<circle style="&st0;" cx="48.7" cy="66.9" r="8.6"/>
<circle style="&st0;" cx="398.7" cy="66.9" r="8.6"/>
<circle style="&st0;" cx="778.7" cy="66.9" r="8.6"/>
<circle style="&st0;" cx="255.7" cy="224.9" r="8.6"/>
<circle style="&st0;" cx="328.7" cy="224.9" r="8.6"/>
<circle style="&st0;" cx="398.7" cy="224.9" r="8.6"/>
<circle style="&st0;" cx="524.7" cy="224.9" r="8.6"/>
<circle style="&st0;" cx="689.7" cy="224.9" r="8.6"/>
<circle style="&st0;" cx="291.7" cy="182.9" r="8.6"/>
<circle style="&st0;" cx="157.7" cy="182.9" r="8.6"/>
<circle style="&st0;" cx="116.7" cy="224.9" r="8.6"/>
</svg>
